<svg width="48" height="48" viewBox="0 0 48 48" fill="none" xmlns="http://www.w3.org/2000/svg">
<g id="chick-svgrepo-com 1" clip-path="url(#clip0_2973_1259)">
<g id="Group">
<path id="Vector" d="M45.7266 16.3588L45.7016 16.2268L45.6478 16.1032C45.5749 15.9333 45.4649 15.642 45.3253 15.2937C44.9431 14.35 44.3339 12.9626 43.205 11.7004C43.2066 11.6359 43.2089 11.5729 43.2089 11.5054C43.2096 8.33222 41.92 5.448 39.8401 3.36956C37.7615 1.28953 34.8768 -0.000749673 31.7035 3.26786e-07C28.5304 -0.000749673 25.6463 1.28953 23.5677 3.36956C21.4884 5.44809 20.1973 8.33222 20.198 11.5054C20.1973 12.5552 20.3217 13.4655 20.4932 14.3083C20.6653 15.1519 20.8777 15.9263 21.0704 16.7623C21.1402 17.0679 21.2274 17.3327 21.3131 17.5619C19.0389 17.3404 16.9748 17.2312 15.1177 17.2312C13.1083 17.2312 11.3401 17.3571 9.79863 17.609C8.64251 17.7979 7.61313 18.0573 6.70432 18.3948C5.3457 18.9016 4.23898 19.5873 3.44848 20.5135C3.05548 20.9755 2.74826 21.4966 2.54576 22.0565C2.34251 22.6163 2.24388 23.211 2.24463 23.8148C2.24538 24.8526 2.52382 25.91 3.01535 26.9879C3.50773 28.0666 4.21685 29.1734 5.13101 30.3257C5.77048 31.1305 6.23557 31.7253 6.63082 32.3101C7.02748 32.8965 7.36657 33.4822 7.77016 34.3219C9.03241 36.9496 10.8022 39.2406 13.0757 40.8859C14.4632 41.8926 16.0425 42.6473 17.7789 43.0812L15.4319 48H22.5353V45.8426H18.8524L19.9941 43.45C20.4152 43.4857 20.8422 43.5062 21.2769 43.5054C23.5928 43.5062 25.7912 42.9919 27.7658 42.077L30.7425 46.7544L36.557 44.7032L35.8394 42.6686L31.6422 44.1494L29.6585 41.0339C30.5809 40.4377 31.4381 39.7489 32.2089 38.9774C35.0059 36.1835 36.7384 32.3102 36.7384 28.0454H36.7377C36.7429 27.937 36.7468 27.8286 36.7468 27.7178C36.7445 26.9463 36.6467 26.0716 36.554 25.1886C36.4615 24.3102 36.3742 23.4302 36.3751 22.7672C36.3736 22.4198 36.4031 22.1406 36.4365 21.9881C38.075 21.247 39.5012 20.1364 40.6192 18.7634C41.7215 18.7285 42.6818 18.6466 43.4579 18.5039C43.6878 18.4607 43.9032 18.413 44.108 18.3546C44.4168 18.2635 44.6974 18.1657 45.0047 17.9654C45.1579 17.8614 45.3232 17.7279 45.4773 17.5118C45.553 17.404 45.6244 17.2736 45.6745 17.1249C45.7261 16.9762 45.7556 16.8093 45.7549 16.6448C45.7548 16.5446 45.7442 16.4483 45.7266 16.3588ZM41.9444 16.1669C41.3769 16.2185 40.7094 16.2511 39.9751 16.2609L39.3454 16.27L38.9752 16.7797C38.0171 18.099 36.7147 19.1481 35.2021 19.789C34.8455 19.9377 34.5626 20.201 34.3851 20.4604C34.2478 20.6576 34.1575 20.8556 34.0893 21.0475C33.9884 21.3365 33.936 21.6164 33.9027 21.9001C33.8708 22.1839 33.8586 22.4721 33.8586 22.7672C33.8601 23.6282 33.958 24.5643 34.0514 25.4511C34.1447 26.3325 34.2312 27.1723 34.2297 27.7178C34.2297 27.8125 34.2274 27.8975 34.2229 27.9688L34.2214 28.0075V28.0454C34.2206 31.6229 32.7739 34.8515 30.4292 37.1978C28.0829 39.5418 24.8551 40.9884 21.2769 40.9884C18.643 40.9854 16.428 40.1994 14.5505 38.8462C12.6784 37.493 11.1521 35.5493 10.0384 33.2319C9.9747 33.0984 9.91095 32.9771 9.84879 32.8519C11.0269 33.2479 12.1018 33.5186 13.0554 33.6962C14.684 34.0004 15.9698 34.0444 16.8256 34.0444C17.1669 34.0444 17.4408 34.0384 17.6221 34.0384C18.1182 34.0384 18.5209 33.6355 18.5209 33.1387C18.5209 32.6418 18.1181 32.2398 17.6221 32.2398C17.4028 32.2398 17.1441 32.2466 16.8256 32.2466C16.0337 32.2466 14.8798 32.2072 13.3846 31.9288C11.9827 31.6671 10.279 31.1891 8.31495 30.3327C7.95691 29.8426 7.56551 29.3458 7.10201 28.7609C6.28348 27.73 5.68573 26.7802 5.30491 25.9444C4.9226 25.1068 4.76032 24.3907 4.76182 23.815C4.76641 23.2149 4.9151 22.7583 5.23441 22.3107C5.47798 21.9777 5.83601 21.647 6.35107 21.3352C7.11879 20.8687 8.2377 20.4597 9.7032 20.1813C11.1689 19.9006 12.9765 19.7474 15.1179 19.7474C17.0395 19.7474 19.228 19.8703 21.685 20.1283L21.8755 20.148L22.0636 20.1108C22.2979 20.0638 22.5096 20.0123 22.7114 19.9462C22.8647 19.8961 23.0141 19.8376 23.1665 19.7572C23.2811 19.6982 23.3979 19.6245 23.5147 19.529C23.6892 19.3886 23.8637 19.1861 23.976 18.9448C24.0913 18.7044 24.1352 18.4449 24.1329 18.2332C24.1299 17.9214 24.0624 17.703 24.0039 17.5224C23.9114 17.2554 23.8166 17.0552 23.7338 16.8466C23.6504 16.6395 23.5769 16.4317 23.5222 16.1964C23.3151 15.2998 23.108 14.5413 22.9601 13.8077C22.8114 13.0734 22.7159 12.3626 22.7151 11.5055C22.7159 9.01884 23.7196 6.78094 25.3474 5.14997C26.9784 3.52134 29.2177 2.51775 31.7036 2.517C34.1895 2.51775 36.4295 3.52134 38.0598 5.14997C39.6885 6.78094 40.6921 9.01875 40.6928 11.5055C40.6928 11.6898 40.683 11.8854 40.6693 12.0964L40.6337 12.6722L41.0464 13.0758C41.7003 13.7138 42.1789 14.4784 42.5362 15.202C42.6804 15.4964 42.801 15.7762 42.9109 16.0433C42.6416 16.0902 42.3169 16.1335 41.9444 16.1669Z" fill="#ECEDEE"/>
<path id="Vector_2" d="M33.921 10.3668C33.1267 10.3668 32.4834 11.0108 32.4834 11.8057C32.4834 12.5992 33.1267 13.244 33.921 13.244C34.7152 13.244 35.3593 12.5992 35.3593 11.8057C35.3593 11.0108 34.7152 10.3668 33.921 10.3668Z" fill="#ECEDEE"/>
</g>
</g>
<defs>
<clipPath id="clip0_2973_1259">
<rect width="48" height="48" fill="white"/>
</clipPath>
</defs>
</svg>
